<svg xmlns="http://www.w3.org/2000/svg" xml:space="preserve" width="256" height="256"><path fill="#FFCC5C" d="M186.942 76.125a5.4 5.4 0 0 0 3.834-1.585l25.716-25.717a5.417 5.417 0 0 0 0-7.657 5.41 5.41 0 0 0-7.656 0l-25.718 25.717a5.42 5.42 0 0 0 0 7.658 5.4 5.4 0 0 0 3.824 1.584"/><path fill="#FF6E69" d="M224.802 72.104c10.838-10.838 10.84-28.411-.002-39.245-10.835-10.839-28.406-10.839-39.246-.001z"/><path fill="#FFCC5C" d="M141.367 13.366c0-7.38-5.986-13.366-13.366-13.366-7.385 0-13.365 5.985-13.365 13.366 0 6.114 4.123 11.207 9.721 12.803v9.678h7.288v-9.678c5.598-1.597 9.722-6.689 9.722-12.803"/><path fill="#95CEB4" d="M38.697 256a9.1 9.1 0 0 1-6.443-2.675c-3.561-3.557-3.561-9.32 0-12.886l43.284-43.283c3.556-3.564 9.331-3.564 12.886 0 3.559 3.559 3.559 9.32 0 12.886L45.14 253.325A9.1 9.1 0 0 1 38.697 256m178.61 0a9.1 9.1 0 0 1-6.443-2.675l-43.29-43.283c-3.558-3.565-3.558-9.327 0-12.886a9.103 9.103 0 0 1 12.887 0l43.289 43.283c3.56 3.565 3.56 9.329 0 12.886a9.1 9.1 0 0 1-6.443 2.675"/><path fill="#FFCC5C" d="M69.059 76.125a5.4 5.4 0 0 1-3.832-1.585L39.51 48.822a5.417 5.417 0 0 1 0-7.657 5.41 5.41 0 0 1 7.657 0l25.717 25.717a5.416 5.416 0 0 1-3.825 9.243"/><path fill="#48707C" d="M234.619 139.733c0-58.882-47.733-106.623-106.618-106.623-58.883 0-106.621 47.741-106.621 106.623 0 58.884 47.737 106.619 106.621 106.619 58.885.001 106.618-47.735 106.618-106.619"/><path fill="#FFF" d="M217.307 139.733c0-49.32-39.989-89.307-89.305-89.307-49.322 0-89.305 39.986-89.305 89.307s39.983 89.305 89.305 89.305c49.315 0 89.305-39.984 89.305-89.305"/><path fill="#FF6E69" d="M31.201 72.104c-10.838-10.838-10.839-28.411.001-39.245C42.038 22.02 59.61 22.02 70.448 32.858z"/><path fill="#FFCC5C" d="M98.631 174.082a7.28 7.28 0 0 1-5.364-2.346 7.29 7.29 0 0 1 .423-10.302l27.022-24.899V80.957a7.289 7.289 0 1 1 14.578 0v58.777a7.28 7.28 0 0 1-2.349 5.359l-29.369 27.063a7.28 7.28 0 0 1-4.941 1.926"/><path fill="#48707C" d="M128.001 69.107a1.82 1.82 0 0 1-1.822-1.822V56.05c0-1.011.816-1.822 1.822-1.822s1.822.812 1.822 1.822v11.235a1.82 1.82 0 0 1-1.822 1.822m-35.31 9.465a1.823 1.823 0 0 1-2.491-.668l-5.62-9.73a1.825 1.825 0 0 1 3.159-1.825l5.621 9.733a1.824 1.824 0 0 1-.669 2.49m-25.849 25.849a1.82 1.82 0 0 1-2.487.671l-9.736-5.621a1.822 1.822 0 1 1 1.823-3.158l9.736 5.621a1.82 1.82 0 0 1 .664 2.487m-9.462 35.312a1.82 1.82 0 0 1-1.822 1.823H44.317a1.82 1.82 0 0 1-1.822-1.823c0-1.007.811-1.821 1.822-1.821h11.241c1.005 0 1.822.815 1.822 1.821m9.462 35.314c.506.87.208 1.985-.665 2.491l-9.733 5.618a1.82 1.82 0 0 1-2.49-.665 1.827 1.827 0 0 1 .668-2.495l9.733-5.619a1.82 1.82 0 0 1 2.487.67m25.849 25.849a1.82 1.82 0 0 1 .671 2.49l-5.621 9.728a1.822 1.822 0 1 1-3.156-1.821l5.614-9.731a1.825 1.825 0 0 1 2.492-.666m35.313 9.462a1.82 1.82 0 0 1 1.825 1.819v11.236a1.83 1.83 0 0 1-1.825 1.827 1.83 1.83 0 0 1-1.825-1.827V212.18a1.824 1.824 0 0 1 1.825-1.822m35.309-9.462a1.816 1.816 0 0 1 2.49.663l5.62 9.733a1.821 1.821 0 1 1-3.158 1.815l-5.621-9.722a1.824 1.824 0 0 1 .669-2.489m25.851-25.849a1.82 1.82 0 0 1 2.485-.673l9.733 5.62a1.817 1.817 0 0 1 .667 2.491 1.81 1.81 0 0 1-2.49.664l-9.728-5.613c-.872-.51-1.176-1.623-.667-2.489m9.465-35.319c0-1.001.805-1.821 1.817-1.821h11.233c1.011 0 1.823.816 1.829 1.821a1.82 1.82 0 0 1-1.829 1.823h-11.228a1.81 1.81 0 0 1-1.822-1.823m-9.465-35.31a1.824 1.824 0 0 1 .662-2.491l9.733-5.614a1.823 1.823 0 0 1 2.49.666c.51.868.206 1.985-.667 2.493l-9.733 5.615a1.816 1.816 0 0 1-2.485-.669m-25.851-25.852a1.824 1.824 0 0 1-.675-2.484l5.621-9.728a1.827 1.827 0 0 1 2.496-.674c.873.497 1.165 1.617.662 2.493l-5.62 9.73a1.805 1.805 0 0 1-2.484.663"/><path fill="#FFCC5C" d="M141.367 137.912c0-7.385-5.986-13.366-13.366-13.366-7.385 0-13.365 5.981-13.365 13.366 0 7.383 5.98 13.366 13.365 13.366 7.38 0 13.366-5.983 13.366-13.366"/><path d="M200.853 217.547c20.769-19.454 33.767-47.108 33.767-77.813 0-30.056-12.457-57.189-32.464-76.572l6.853-6.853 15.794 15.795c10.838-10.838 10.84-28.411-.002-39.245-10.835-10.839-28.406-10.839-39.246-.001l15.795 15.795-7.364 7.364c-17.263-13.626-38.832-22.021-62.34-22.813V26.17c5.599-1.597 9.723-6.689 9.723-12.803 0-7.38-5.986-13.366-13.366-13.366H128v246.353h.001c21.58 0 41.648-6.432 58.432-17.453l24.43 24.426a9.1 9.1 0 0 0 6.443 2.675c2.33 0 4.661-.898 6.442-2.675 3.56-3.557 3.56-9.32 0-12.886z" opacity=".15"/></svg>
