<svg xmlns="http://www.w3.org/2000/svg" id="icons" viewBox="0 0 128 128"><defs><style>.cls-2{fill:#919ea8}.cls-4{fill:#fff}.cls-6{fill:none;stroke:#3d344c;stroke-linecap:round;stroke-linejoin:round;stroke-width:2px}</style></defs><path d="M85 6a5 5 0 0 1-1.46 3.53A4.85 4.85 0 0 1 80.06 11H47.94a5 5 0 0 1-3.48-8.53A4.85 4.85 0 0 1 47.94 1h32.12A5 5 0 0 1 85 6Z" style="fill:#c9ccd3"/><path d="M69 11v10.23c-1.65-.15-3.31-.23-5-.23s-3.35.08-5 .23V11Z" class="cls-2"/><path d="M117 74a53 53 0 1 1-58-52.77c1.65-.15 3.31-.23 5-.23s3.35.08 5 .23a52.81 52.81 0 0 1 28.77 11.92 53.44 53.44 0 0 1 7.06 7.05A52.83 52.83 0 0 1 117 74Z" style="fill:#f06a55"/><path d="M47.94 11h5a5 5 0 0 1-3.48-8.53A4.85 4.85 0 0 1 52.94 1h-5a4.85 4.85 0 0 0-3.48 1.47A5 5 0 0 0 47.94 11ZM16 74a53 53 0 0 1 48-52.77V11h-5v10.23A53 53 0 0 0 64 127c.84 0 1.67 0 2.5-.06A53 53 0 0 1 16 74Z" class="cls-4"/><circle cx="64" cy="74" r="43" class="cls-4"/><path d="m111.54 33.54-6.71 6.66a53.44 53.44 0 0 0-7.06-7.05l6.69-6.69a5 5 0 0 1 7.08 7.08Z" class="cls-2"/><path d="M70.47 71.32a7 7 0 0 1-12.93 5.36c-2.3-5.54 0-18.38 0-18.38s10.63 7.48 12.93 13.02Z" style="fill:#96d7db"/><path d="M85 6a5 5 0 0 1-1.46 3.53A4.85 4.85 0 0 1 80.06 11H47.94a5 5 0 0 1-3.48-8.53A4.85 4.85 0 0 1 47.94 1h32.12A5 5 0 0 1 85 6Z" class="cls-6"/><path d="M69 11v10.23c-1.65-.15-3.31-.23-5-.23s-3.35.08-5 .23V11Z" class="cls-6"/><path d="M117 74a53 53 0 1 1-58-52.77c1.65-.15 3.31-.23 5-.23s3.35.08 5 .23a52.81 52.81 0 0 1 28.77 11.92 53.44 53.44 0 0 1 7.06 7.05A52.83 52.83 0 0 1 117 74Z" class="cls-6"/><circle cx="64" cy="74" r="43" class="cls-6"/><path d="m111.54 33.54-6.71 6.66a53.44 53.44 0 0 0-7.06-7.05l6.69-6.69a5 5 0 0 1 7.08 7.08ZM64 41v6M40.67 50.67l4.24 4.24M31 74h6M40.67 97.33l4.24-4.24M64 107v-6M87.33 97.33l-4.24-4.24M97 74h-6M87.33 50.67l-4.24 4.24M70.47 71.32a7 7 0 0 1-12.93 5.36c-2.3-5.54 0-18.38 0-18.38s10.63 7.48 12.93 13.02Z" class="cls-6"/></svg>
