<svg xmlns="http://www.w3.org/2000/svg" width="256" height="256" stroke="#000" viewBox="0 0 512 512"><path fill="#FD7E14" fill-rule="evenodd" stroke="none" d="M278.313 48.296a42.667 42.667 0 0 1 15.876 15.876l182.478 319.336c11.691 20.46 4.583 46.523-15.876 58.214a42.667 42.667 0 0 1-21.169 5.621H74.667C51.103 447.343 32 428.241 32 404.677a42.667 42.667 0 0 1 5.622-21.169L220.099 64.172c11.691-20.46 37.755-27.567 58.214-15.876ZM256 314.666c-15.238 0-26.667 11.265-26.667 26.283 0 15.702 11.083 26.966 26.667 26.966 15.238 0 26.667-11.264 26.667-26.624S271.238 314.667 256 314.667Zm21.333-165.333h-42.666v128h42.666v-128Z"/></svg>
