<svg xmlns="http://www.w3.org/2000/svg" viewBox="0 0 90 90"><defs><style>.cls-1{fill:#4d4d4f}.cls-2{fill:#404041}.cls-3{fill:#ffa400}</style></defs><g id="insect"><path d="M21.12 68.07a2.72 2.72 0 0 0-1.91.8l-8 8.08a2.89 2.89 0 0 0-.11 4 2.82 2.82 0 0 0 3.9-.14l7.21-7.29h6.69l-3-5.45Z" class="cls-1"/><path d="M29.5 39.07v-.23.23Z" class="cls-2"/><path d="M29.51 38.84V39.65h15.84v-2.73H29.84a17 17 0 0 0-.33 1.92Z" class="cls-1"/><path d="M29.51 38.84V39.65h15.84v-2.73H29.84a17 17 0 0 0-.33 1.92ZM24.34 45.94a27.5 27.5 0 0 1 1-6.69l-2.14-2.16a29.9 29.9 0 0 0-1.41 6.3ZM25.28 59.84l-.87-5.9h-.17l-.14.49h-2.4l.67 5.38ZM28.63 68.07h-2.71l3 5.45h3a2.14 2.14 0 0 0 .48-.1Z" class="cls-2"/><path d="M84.26 47a2.82 2.82 0 0 0-3.93.12l-7.2 7.33H68.3l-.67 5.38h-2.91l.87-5.9h.17l-.09-.3c.12-1.36.2-2.72.2-4.11 0-1.14-.07-2.24-.15-3.35 0 0 .06-.18.15-.46l7.58-7.67a2.72 2.72 0 0 0 .58-.89 2.82 2.82 0 0 0 .2-1.05V24.67a2.71 2.71 0 1 0-5.4 0V35l-2.05 2.08a29.9 29.9 0 0 1 1.41 6.3l-2.53 2.56a27.5 27.5 0 0 0-1-6.69l-.39.4h-3.73v-.58.58H29.46v-.58.58h-3.72l-.39-.4a27.5 27.5 0 0 0-1 6.69l-2.55-2.56a29.9 29.9 0 0 1 1.41-6.3L21.16 35V24.68a2.86 2.86 0 0 0-2.7-2.9 2.86 2.86 0 0 0-2.7 2.89v11.47a2.82 2.82 0 0 0 .2 1.05 2.72 2.72 0 0 0 .58.89l7.58 7.67c.09.27.15.46.15.46-.08 1.11-.15 2.21-.15 3.35 0 1.39.08 2.76.2 4.11l-.09.3h.17l.87 5.9h-2.9l-.67-5.38h-4.82l-7.2-7.33A2.82 2.82 0 0 0 5.74 47a2.9 2.9 0 0 0 .11 4l8 8.11a2.68 2.68 0 0 0 .88.6 2.72 2.72 0 0 0 1 .21h9.69a35.24 35.24 0 0 0 3.2 8.17l3.76 5.35a2.14 2.14 0 0 1-.48.1 2.62 2.62 0 0 0 .53-.11c3.4 3.72 7.62 6 12.21 6.21h.7c4.59-.22 8.81-2.49 12.21-6.21a2.62 2.62 0 0 0 .53.11 2.14 2.14 0 0 1-.48-.1l3.76-5.35a35.24 35.24 0 0 0 3.2-8.17h9.69a2.72 2.72 0 0 0 1-.21 2.68 2.68 0 0 0 .88-.6l8-8.11a2.9 2.9 0 0 0 .13-4Z" class="cls-1"/><path d="M68.88 68.07a2.72 2.72 0 0 1 1.91.8l8 8.08a2.89 2.89 0 0 1 .11 4 2.82 2.82 0 0 1-3.9-.14l-7.21-7.29H61.1l3-5.45ZM69 8.36a22.77 22.77 0 0 0-16.69 16.2 14.64 14.64 0 0 0-7-2.15h-.68a14.64 14.64 0 0 0-7 2.15A22.77 22.77 0 0 0 21 8.36a2 2 0 0 0-.68 3.84 18.52 18.52 0 0 1 14 15.1 18.46 18.46 0 0 0-4.53 8.94 19.16 19.16 0 0 0-.32 2.6 17 17 0 0 1 .33-1.92h30.36a17 17 0 0 1 .33 1.92 19.16 19.16 0 0 0-.32-2.6 18.46 18.46 0 0 0-4.53-8.94 18.52 18.52 0 0 1 14-15.1A2 2 0 0 0 69 8.36ZM40.11 31.48a1.33 1.33 0 1 1 1.31-1.32 1.32 1.32 0 0 1-1.31 1.32Zm9.77 0a1.33 1.33 0 1 1 1.31-1.32 1.31 1.31 0 0 1-1.3 1.32Z" class="cls-1"/><path d="M60.5 39.07v-.23.23Z" class="cls-2"/><path d="M60.49 38.84V39.65H44.65v-2.73h15.51a17 17 0 0 1 .33 1.92Z" class="cls-1"/><path d="M60.49 38.84V39.65H44.65v-2.73h15.51a17 17 0 0 1 .33 1.92ZM65.66 45.94a27.5 27.5 0 0 0-1-6.69l2.14-2.16a29.9 29.9 0 0 1 1.41 6.3ZM64.72 59.84l.87-5.9h.17l.14.49h2.4l-.67 5.38ZM61.37 68.07h2.71l-3 5.45h-3a2.14 2.14 0 0 1-.48-.1Z" class="cls-2"/><ellipse cx="49.89" cy="30.15" class="cls-3" rx="1.33" ry="1.35"/><ellipse cx="40.11" cy="30.15" class="cls-3" rx="1.33" ry="1.35"/></g></svg>
